<svg width="18" height="15" viewBox="0 0 18 15" fill="none" xmlns="http://www.w3.org/2000/svg">
<path d="M16.6125 0.259649C17.1891 0.430219 17.5172 0.922546 17.3906 1.42263C17.3016 1.7754 16.95 2.0894 16.5422 2.17856C16.4297 2.2057 13.8188 2.21345 8.89688 2.20957L1.42969 2.19794L1.2375 2.11266C1.0125 2.01187 0.768753 1.79478 0.665628 1.60095C0.571878 1.42263 0.571878 0.996201 0.665628 0.817878C0.768753 0.624048 1.0125 0.406959 1.2375 0.306168L1.42969 0.220883L8.92969 0.213129C15.2859 0.205376 16.4578 0.21313 16.6125 0.259649Z" fill="white"/>
<path d="M16.6125 6.25965C17.1891 6.43022 17.5172 6.92255 17.3906 7.42263C17.3016 7.7754 16.95 8.0894 16.5422 8.17856C16.4297 8.2057 13.8188 8.21345 8.89688 8.20957L1.42969 8.19794L1.2375 8.11266C1.0125 8.01187 0.768753 7.79478 0.665628 7.60095C0.571878 7.42263 0.571878 6.9962 0.665628 6.81788C0.768753 6.62405 1.0125 6.40696 1.2375 6.30617L1.42969 6.22088L8.92969 6.21313C15.2859 6.20538 16.4578 6.21313 16.6125 6.25965Z" fill="white"/>
<path d="M9.39844 12.2353C9.95157 12.4149 10.2516 12.8014 10.2094 13.2739C10.1766 13.6487 9.92813 13.9571 9.53438 14.1211C9.35626 14.1914 9.21563 14.1953 5.39063 14.1953H1.42969L1.2375 14.1094C1.01251 14.0079 0.768755 13.7892 0.66563 13.594C0.57188 13.4144 0.57188 12.9849 0.66563 12.8053C0.768755 12.6101 1.01251 12.3914 1.2375 12.2899L1.42969 12.204L5.34376 12.1962C8.26876 12.1923 9.29532 12.2001 9.39844 12.2353Z" fill="white"/>
</svg>
